<?xml version="1.0" encoding="UTF-8"?>
<svg id="Layer_1" xmlns="http://www.w3.org/2000/svg" version="1.1" viewBox="0 0 165.4 152.16">
  <!-- Generator: Adobe Illustrator 30.5.0, SVG Export Plug-In . SVG Version: 2.1.4 Build 167)  -->
  <defs>
    <style>
      .st0 {
        fill: #433e33;
      }
    </style>
  </defs>
  <path class="st0" d="M160.87,134.24c-5.07-.41-19.53-1.86-24.52-1.51-.49-6.69-.98-13.37-1.47-20.06-.49-6.63.21-13.67-6.81-16.86-6.69-3.04-14.81-3.46-22.04-3.63-8.31-.19-16.64,0-24.94.35-2.51.11-5.02.24-7.54.39-1.38-16.47-2.35-15.6-.36-32.01.05-.44.05-.86,0-1.24.36-.78.53-1.69.44-2.7-.06-.67-.14-1.35-.22-2.03.16-11.69.52-23.63,4.36-34.75,1.43-4.15,5.19-12.11,10.98-10.01,6.1,2.21,3.23,11.89,2.05,16.23-1.68,6.19,7.78,9.44,9.47,3.23,2.2-8.1,3.91-17.24-1.81-24.34-5.28-6.56-14.44-6.75-21.02-2.05-7.37,5.27-10.02,15.05-11.68,23.48-.18.93-.34,1.86-.49,2.79-3.99-5.84-9.72-9.97-17.95-10.21-6.98-.21-14.18,3.31-17.47,9.62-1.84,3.52-1.99,7.44-2.2,11.33-.31,5.69-.61,11.37-.92,17.06-.35,6.42,9.63,7.03,9.98.6.37-6.77.38-13.67,1.11-20.42.58-5.38,4.51-8.87,10.16-8.12,11.48,1.52,14.29,15.37,15.46,25.6-.01.93-.03,1.87-.04,2.8,0,.45.05.86.14,1.26-.15.4-.27.83-.33,1.31-2.04,16.88-.9,16.38.45,33.3-2.38.19-4.76.4-7.14.62-4.51.43-9.01.93-13.5,1.5-3.02.38-6.42.41-9.23,1.7-6.37,2.93-6.01,11.52-6.61,17.4-.84,8.29-1.36,16.6-1.63,24.92-6.81-.53-13.61-.95-20.41-1-6.41-.05-7.05,9.93-.6,9.98,25.06.19,49.96,4.94,75.05,2.91,17.33-1.41,51.47-8.44,51.47-8.44l3.85-.38s20.02.95,25.38,1.39c6.42.52,7.01-9.46.6-9.98ZM35.51,140.59c.2-6.1.52-12.19,1.02-18.27.27-3.27.58-6.55.94-9.81.15-1.39-.04-3.61.57-4.9.24-.51.36-.84.4-1.05.17,0,.44-.07.89-.25,2.69-1.12,6.73-.9,9.63-1.24,3.21-.38,6.43-.72,9.65-1.03,6.96-.67,13.94-1.15,20.93-1.46,12.62-.57,26.4-1.77,38.87.77,1.36.28,3.12.48,4.31,1.17,1.69.97,1.41.89,1.83,2.72.69,3.03.49,6.63.71,9.72.41,5.62.82,11.23,1.24,16.84-15.11,2.1-30.01,6.12-45.23,7.74-15.23,1.62-30.49.37-45.75-.93Z"/>
  <path class="st0" d="M148.46,135.22c.74-7.21.78-14.39.02-21.59-.28-2.66-2.69-4.77-5.36-4.47-17.08,1.93-61.79,3.44-78.94,3.7-8.56.13-17.13.35-25.68.99-8.13.61-16.82,1.06-24.6,3.76-2.47.86-3.34,2.95-3.1,4.96-.14.53-.23,1.09-.25,1.66-.1,3.37-.2,6.74-.3,10.11-.1,3.26-.23,5.63,2.11,8.12,1.83,1.95,5.34,1.29,6.93-.62,1.37-1.65,1.41-3.6.62-5.29.09-.35.09-1.87.1-2.09.04-1.31.08-2.62.12-3.93.04-1.48.09-2.97.13-4.45,7.3-1.92,15.47-2.08,22.83-2.53,7.94-.49,15.9-.66,23.86-.77,14.87-.21,57.31-1.82,72.14-3.18.25,4.64.17,9.27-.31,13.95-.65,6.37,9.03,8.09,9.69,1.67Z"/>
</svg>